<svg id="Layer_1" data-name="Layer 1" xmlns="http://www.w3.org/2000/svg" viewBox="0 0 589.8 291.99"><defs><style>.cls-1{fill:#fff;}</style></defs><title>ip1svg_white</title><path class="cls-1" d="M59.54,127.2A65.64,65.64,0,0,1,23.9,112.05a63,63,0,0,1-20-31.31,65.34,65.34,0,0,1,1.19-38A63.07,63.07,0,0,1,37.21,6.6c15.29-7.21,31.73-9,48-4.07a66.68,66.68,0,0,1,32.56,22.13,57,57,0,0,1,12.71,32.79,128,128,0,0,1-.11,14.26c-1.18,16.74-10.44,31.41-23.3,41.71a66.31,66.31,0,0,1-35.64,13.93A64.59,64.59,0,0,1,59.54,127.2Z" transform="translate(-1.61 0.23)"/><path class="cls-1" d="M511,290.44c-8.12-.38-14.66-7.93-14.74-15.81-.38-38.13.05-76.39,0-114.53a16.08,16.08,0,0,0-3.42-9,17.17,17.17,0,0,0-11.78-6.85c-8.25-1-15.14,1.91-22.34-4.13A15.31,15.31,0,0,1,453,129.21c-.41-10.08-.13-20.74,0-30.89.06-4.75,3.18-8.94,7.14-11.29,3.33-2,7.18-3,10.93-3.89,23.13-5.61,46.21-11.42,69.38-16.87a127.68,127.68,0,0,1,13.31-2.17,61.51,61.51,0,0,1,6.65-.59c5.09-.08,13.31-.52,18.06.53a15.79,15.79,0,0,1,6.18,2.88,16.59,16.59,0,0,1,6.65,12.87q.23,97.19,0,194.37c0,8.26-6.64,15.92-14.73,16.28C554.71,290.87,532.84,291.11,511,290.44Z" transform="translate(-1.61 0.23)"/><path class="cls-1" d="M220.64,290.67c-16.16,0-32.32.05-48.47,0-5.06,0-10.11-3.43-12.81-7.48a15.82,15.82,0,0,1-2.76-8.56c.12-65.1,0-130.21.36-195.32a16.28,16.28,0,0,1,4.28-10.16,15.73,15.73,0,0,1,11.4-5.52c66.63-.44,133.43-.23,200.07.24a43.66,43.66,0,0,1,8.56,1.18c15,3.16,27.4,13.22,34.52,26.62a46.87,46.87,0,0,1,5.64,20.44c.61,21.71.12,43.82.12,65.58a52.34,52.34,0,0,1-7.72,27.08,51.59,51.59,0,0,1-38.26,24.1,31.11,31.11,0,0,1-3.33.26c-41.35,0-82.7-.1-124,.24a17.16,17.16,0,0,0-5.71,1.13c-3.58,1.31-5.48,4.9-5.69,8.49-.69,11.47-.21,23.61-.25,35.17a16.8,16.8,0,0,1-9.26,14.76A15.18,15.18,0,0,1,220.64,290.67Zm114.53-115a15.22,15.22,0,0,0,2.85-.36c7.28-1.4,13.77-8,13.9-15.67.16-9.34.22-18.71,0-28a15.71,15.71,0,0,0-3.44-9.26c-2.86-3.64-7.54-6.75-12.36-6.78-27.52-.15-55.18-.35-82.69,0-4.15.06-8.35,2.42-11.1,5.58-2.32,2.68-4.28,6.33-4.34,10-.16,10-.26,20,.12,29.94a12.56,12.56,0,0,0,1,3.81,17.3,17.3,0,0,0,15.71,10.8C281.63,175.71,308.4,175.66,335.17,175.66Z" transform="translate(-1.61 0.23)"/><path class="cls-1" d="M439.72,291.75c-11.54-.4-20.93-6.44-26.83-16.17-5.59-9.22-5.51-21.44-.62-30.89a32.47,32.47,0,0,1,24.12-17c10.1-1.43,21.22,2.28,28,10A33,33,0,0,1,473,259.9a32.22,32.22,0,0,1-33.27,31.85Z" transform="translate(-1.61 0.23)"/><path class="cls-1" d="M109.44,290.55q-43.24,0-86.49,0c-6.6,0-11.93-5.83-12-12.12-.49-43.12-.23-86.59.23-129.73a12.88,12.88,0,0,1,2.26-6.43c2.64-3.93,7.71-6.27,12.36-5,3.66,1,7.77,3.94,11.41,5.58a72.34,72.34,0,0,0,27.08,6.72c14.32.49,28.1-4.23,40.4-11.29,5.34-3.07,12.14-.14,15.18,4.75a12.06,12.06,0,0,1,1.93,6.18c0,43.08-.27,86.18-.47,129.26a12.7,12.7,0,0,1-6.19,10.46A12.07,12.07,0,0,1,109.44,290.55Z" transform="translate(-1.61 0.23)"/></svg>